<mxfile host="app.diagrams.net" agent="Mozilla/5.0 (Windows NT 10.0; Win64; x64) AppleWebKit/537.36 (KHTML, like Gecko) Chrome/130.0.0.0 Safari/537.36" version="24.8.6">
  <diagram name="Page-1" id="CtjkJv169cHMldRbKHYG">
    <mxGraphModel dx="1050" dy="522" grid="1" gridSize="10" guides="1" tooltips="1" connect="1" arrows="1" fold="1" page="1" pageScale="1" pageWidth="850" pageHeight="1100" math="0" shadow="0">
      <root>
        <mxCell id="0" />
        <mxCell id="1" parent="0" />
        <mxCell id="SAGonY2cEn5xoz7woeF6-1" value="Customer" style="shape=umlActor;verticalLabelPosition=bottom;verticalAlign=top;html=1;" parent="1" vertex="1">
          <mxGeometry x="82" y="170" width="30" height="60" as="geometry" />
        </mxCell>
        <mxCell id="SAGonY2cEn5xoz7woeF6-2" value="SearchPage" style="shape=umlBoundary;whiteSpace=wrap;html=1;" parent="1" vertex="1">
          <mxGeometry x="270" y="160" width="100" height="80" as="geometry" />
        </mxCell>
        <mxCell id="SAGonY2cEn5xoz7woeF6-3" value="Validate" style="ellipse;shape=umlControl;whiteSpace=wrap;html=1;" parent="1" vertex="1">
          <mxGeometry x="495" y="159" width="70" height="80" as="geometry" />
        </mxCell>
        <mxCell id="SAGonY2cEn5xoz7woeF6-4" value="Catalogue" style="ellipse;shape=umlEntity;whiteSpace=wrap;html=1;" parent="1" vertex="1">
          <mxGeometry x="692" y="160" width="80" height="80" as="geometry" />
        </mxCell>
        <mxCell id="SAGonY2cEn5xoz7woeF6-7" value="" style="endArrow=none;html=1;rounded=0;entryX=0;entryY=0.5;entryDx=0;entryDy=0;entryPerimeter=0;" parent="1" source="SAGonY2cEn5xoz7woeF6-1" target="SAGonY2cEn5xoz7woeF6-2" edge="1">
          <mxGeometry width="50" height="50" relative="1" as="geometry">
            <mxPoint x="210" y="290" as="sourcePoint" />
            <mxPoint x="260" y="240" as="targetPoint" />
          </mxGeometry>
        </mxCell>
        <mxCell id="SAGonY2cEn5xoz7woeF6-8" value="" style="endArrow=none;html=1;rounded=0;entryX=-0.011;entryY=0.515;entryDx=0;entryDy=0;entryPerimeter=0;" parent="1" target="SAGonY2cEn5xoz7woeF6-3" edge="1">
          <mxGeometry width="50" height="50" relative="1" as="geometry">
            <mxPoint x="368" y="200" as="sourcePoint" />
            <mxPoint x="420" y="220" as="targetPoint" />
          </mxGeometry>
        </mxCell>
        <mxCell id="SAGonY2cEn5xoz7woeF6-9" value="" style="endArrow=none;html=1;rounded=0;exitX=1.017;exitY=0.495;exitDx=0;exitDy=0;exitPerimeter=0;entryX=0;entryY=0.5;entryDx=0;entryDy=0;" parent="1" source="SAGonY2cEn5xoz7woeF6-3" target="SAGonY2cEn5xoz7woeF6-4" edge="1">
          <mxGeometry width="50" height="50" relative="1" as="geometry">
            <mxPoint x="590" y="310" as="sourcePoint" />
            <mxPoint x="680" y="200" as="targetPoint" />
          </mxGeometry>
        </mxCell>
        <mxCell id="SAGonY2cEn5xoz7woeF6-10" value="&lt;div&gt;pressSearchButton()&lt;/div&gt;" style="text;html=1;align=center;verticalAlign=middle;resizable=0;points=[];autosize=1;strokeColor=none;fillColor=none;" parent="1" vertex="1">
          <mxGeometry x="129" y="160" width="130" height="30" as="geometry" />
        </mxCell>
        <mxCell id="SAGonY2cEn5xoz7woeF6-11" value="&lt;div&gt;&lt;span style=&quot;background-color: initial;&quot;&gt;validateSearchCriteria()&lt;/span&gt;&lt;/div&gt;" style="text;html=1;align=center;verticalAlign=middle;resizable=0;points=[];autosize=1;strokeColor=none;fillColor=none;" parent="1" vertex="1">
          <mxGeometry x="358" y="157" width="150" height="30" as="geometry" />
        </mxCell>
        <mxCell id="SAGonY2cEn5xoz7woeF6-13" value="searchBooks()" style="text;html=1;align=center;verticalAlign=middle;resizable=0;points=[];autosize=1;strokeColor=none;fillColor=none;" parent="1" vertex="1">
          <mxGeometry x="572" y="157" width="100" height="30" as="geometry" />
        </mxCell>
        <mxCell id="R27TZoK7PRTMvL68wx8I-1" value="" style="endArrow=none;html=1;rounded=0;entryX=0.5;entryY=1;entryDx=0;entryDy=0;" edge="1" parent="1" target="SAGonY2cEn5xoz7woeF6-4">
          <mxGeometry width="50" height="50" relative="1" as="geometry">
            <mxPoint x="730" y="360" as="sourcePoint" />
            <mxPoint x="680" y="310" as="targetPoint" />
          </mxGeometry>
        </mxCell>
        <mxCell id="R27TZoK7PRTMvL68wx8I-2" value="DisplaySearch" style="shape=umlBoundary;whiteSpace=wrap;html=1;" vertex="1" parent="1">
          <mxGeometry x="672" y="360" width="100" height="80" as="geometry" />
        </mxCell>
        <mxCell id="R27TZoK7PRTMvL68wx8I-3" value="createSearchObject()" style="text;html=1;align=center;verticalAlign=middle;resizable=0;points=[];autosize=1;strokeColor=none;fillColor=none;" vertex="1" parent="1">
          <mxGeometry x="726" y="271" width="140" height="30" as="geometry" />
        </mxCell>
        <mxCell id="R27TZoK7PRTMvL68wx8I-4" value="" style="endArrow=none;html=1;rounded=0;entryX=0.568;entryY=0.975;entryDx=0;entryDy=0;entryPerimeter=0;exitX=-0.012;exitY=0.495;exitDx=0;exitDy=0;exitPerimeter=0;edgeStyle=orthogonalEdgeStyle;" edge="1" parent="1" source="R27TZoK7PRTMvL68wx8I-2" target="SAGonY2cEn5xoz7woeF6-2">
          <mxGeometry width="50" height="50" relative="1" as="geometry">
            <mxPoint x="300" y="340" as="sourcePoint" />
            <mxPoint x="350" y="290" as="targetPoint" />
          </mxGeometry>
        </mxCell>
        <mxCell id="R27TZoK7PRTMvL68wx8I-5" value="displaySearchResult()" style="text;html=1;align=center;verticalAlign=middle;resizable=0;points=[];autosize=1;strokeColor=none;fillColor=none;" vertex="1" parent="1">
          <mxGeometry x="430" y="375" width="140" height="30" as="geometry" />
        </mxCell>
      </root>
    </mxGraphModel>
  </diagram>
</mxfile>
